<?xml version="1.0" encoding="UTF-8" standalone="no"?>
<svg width="512px" height="512px" viewBox="0 0 512 512" version="1.1" xmlns="http://www.w3.org/2000/svg" xmlns:xlink="http://www.w3.org/1999/xlink" xmlns:sketch="http://www.bohemiancoding.com/sketch/ns">
    <!-- Generator: Sketch 3.3.2 (12043) - http://www.bohemiancoding.com/sketch -->
    <title>logo</title>
    <desc>Created with Sketch.</desc>
    <defs></defs>
    <g id="Page-1" stroke="none" stroke-width="1" fill="none" fill-rule="evenodd" sketch:type="MSPage">
        <g id="logo" sketch:type="MSArtboardGroup">
            <path d="M35.7075099,484.108033 L3.58102767,440.783934 L3.39130435,440.783934 L3.39130435,484.108033 L2,484.108033 L2,439 L3.96047431,439 L36.1501976,482.260388 L36.3399209,482.260388 L36.3399209,439 L37.7312253,439 L37.7312253,484.108033 L35.7075099,484.108033 L35.7075099,484.108033 Z M49.7470356,469.135734 C49.7470356,470.919677 50.0105375,472.682355 50.5375494,474.423823 C51.0645613,476.16529 51.8656073,477.726217 52.9407115,479.106648 C54.0158157,480.48708 55.3754858,481.602027 57.0197628,482.451524 C58.6640398,483.30102 60.6034144,483.725762 62.8379447,483.725762 C65.1146359,483.725762 67.1383311,483.269164 68.9090909,482.355956 C70.6798508,481.442747 72.2187023,480.115429 73.5256917,478.373961 L74.5375494,479.265928 C73.1040772,481.13482 71.4282046,482.557705 69.5098814,483.534626 C67.5915583,484.511547 65.3676016,485 62.8379447,485 C60.6877363,485 58.7272816,484.607114 56.9565217,483.82133 C55.1857619,483.035545 53.6574504,481.941835 52.3715415,480.540166 C51.0856326,479.138497 50.0948651,477.460767 49.3992095,475.506925 C48.7035538,473.553083 48.3557312,471.429374 48.3557312,469.135734 C48.3557312,466.927043 48.7140939,464.888283 49.43083,463.019391 C50.1475662,461.150499 51.1277935,459.53648 52.3715415,458.177285 C53.6152895,456.818091 55.0803605,455.766855 56.7667984,455.023546 C58.4532364,454.280236 60.26613,453.908587 62.2055336,453.908587 C64.4822248,453.908587 66.4637597,454.312092 68.1501976,455.119114 C69.8366356,455.926135 71.2384661,456.98799 72.3557312,458.304709 C73.4729964,459.621429 74.3056626,461.118644 74.8537549,462.796399 C75.4018473,464.474154 75.6758893,466.18374 75.6758893,467.925208 L75.6758893,469.135734 L49.7470356,469.135734 L49.7470356,469.135734 Z M74.3478261,467.925208 C74.3056651,466.013841 73.9789227,464.272399 73.3675889,462.700831 C72.7562552,461.129263 71.9235889,459.780707 70.8695652,458.655125 C69.8155415,457.529542 68.550732,456.658821 67.0750988,456.042936 C65.5994656,455.427051 63.9552133,455.119114 62.1422925,455.119114 C59.9499232,455.119114 58.0737891,455.575711 56.513834,456.48892 C54.9538789,457.402128 53.6785293,458.527694 52.687747,459.865651 C51.6969647,461.203608 50.9696993,462.605256 50.5059289,464.070637 C50.0421584,465.536018 49.8102767,466.820862 49.8102767,467.925208 L74.3478261,467.925208 L74.3478261,467.925208 Z M97.3043478,484.171745 C96.7984164,484.384119 96.208172,484.554016 95.5335968,484.68144 C94.8590217,484.808865 94.2055368,484.872576 93.5731225,484.872576 C91.2964313,484.872576 89.6627191,484.224845 88.6719368,482.929363 C87.6811545,481.633881 87.1857708,480.009243 87.1857708,478.055402 L87.1857708,456.01108 L80.8616601,456.01108 L80.8616601,454.800554 L87.1225296,454.800554 L87.1225296,446.199446 L88.5770751,446.199446 L88.5770751,454.800554 L97.1146245,454.800554 L97.1146245,456.01108 L88.5770751,456.01108 L88.5770751,478.055402 C88.5770751,480.051718 89.0619187,481.485222 90.0316206,482.355956 C91.0013224,483.226689 92.287212,483.66205 93.8893281,483.66205 C95.0698346,483.66205 96.1449227,483.470916 97.1146245,483.088643 L97.3043478,484.171745 L97.3043478,484.171745 Z M105.525692,484.108033 L105.525692,439 L131.581028,439 L131.581028,440.274238 L106.853755,440.274238 L106.853755,460.088643 L130.126482,460.088643 L130.126482,461.362881 L106.853755,461.362881 L106.853755,482.833795 L132.592885,482.833795 L132.592885,484.108033 L105.525692,484.108033 L105.525692,484.108033 Z M162.56917,477.481994 C162.56917,478.58634 162.62187,479.764998 162.727273,481.018006 C162.832675,482.271013 162.948616,483.301012 163.075099,484.108033 L161.747036,484.108033 C161.662714,483.683285 161.599473,483.162976 161.557312,482.547091 C161.515151,481.931207 161.462451,481.294094 161.399209,480.635734 C161.335968,479.977374 161.293808,479.329643 161.272727,478.692521 C161.251647,478.055398 161.241107,477.524471 161.241107,477.099723 L161.051383,477.099723 C160.208164,479.775637 158.753634,481.761305 156.687747,483.056787 C154.621861,484.352269 152.408444,485 150.047431,485 C148.866924,485 147.696975,484.830103 146.537549,484.490305 C145.378123,484.150506 144.334655,483.640816 143.407115,482.961219 C142.479574,482.281622 141.731228,481.410901 141.162055,480.34903 C140.592883,479.28716 140.3083,478.034172 140.3083,476.590028 C140.3083,474.508762 140.845844,472.831031 141.920949,471.556787 C142.996053,470.282542 144.334643,469.295017 145.936759,468.594183 C147.538875,467.893348 149.256908,467.436751 151.090909,467.224377 C152.92491,467.012003 154.600783,466.905817 156.118577,466.905817 L161.177866,466.905817 L161.177866,464.548476 C161.177866,461.277915 160.313579,458.888743 158.58498,457.380886 C156.856381,455.87303 154.600804,455.119114 151.818182,455.119114 C150.089583,455.119114 148.476951,455.43767 146.980237,456.074792 C145.483523,456.711915 144.144933,457.561398 142.964427,458.623269 L142.205534,457.540166 C143.554684,456.350871 145.082995,455.448295 146.790514,454.83241 C148.498032,454.216525 150.173905,453.908587 151.818182,453.908587 C155.148897,453.908587 157.773376,454.768689 159.6917,456.48892 C161.610023,458.20915 162.56917,460.916879 162.56917,464.612188 L162.56917,477.481994 L162.56917,477.481994 Z M161.177866,468.116343 L156.687747,468.116343 C155.085631,468.116343 153.399218,468.21191 151.628458,468.403047 C149.857699,468.594184 148.234526,468.98707 146.758893,469.581717 C145.28326,470.176365 144.071151,471.025849 143.12253,472.130194 C142.173908,473.234539 141.699605,474.721136 141.699605,476.590028 C141.699605,477.949222 141.963107,479.085406 142.490119,479.998615 C143.01713,480.911824 143.691695,481.644503 144.513834,482.196676 C145.335972,482.748849 146.242419,483.152353 147.233202,483.407202 C148.223984,483.662051 149.162051,483.789474 150.047431,483.789474 C152.197639,483.789474 153.989453,483.385969 155.422925,482.578947 C156.856397,481.771926 158.005266,480.741927 158.869565,479.48892 C159.733865,478.235912 160.334649,476.855502 160.671937,475.347645 C161.009224,473.839789 161.177866,472.363811 161.177866,470.919668 L161.177866,468.116343 L161.177866,468.116343 Z M191.343874,476.462604 C191.343874,477.779323 191.090912,478.957982 190.58498,479.998615 C190.079049,481.039248 189.393944,481.920587 188.529644,482.642659 C187.665345,483.364731 186.664037,483.916896 185.525692,484.299169 C184.387346,484.681442 183.164697,484.872576 181.857708,484.872576 C179.707499,484.872576 177.757585,484.458453 176.007905,483.630194 C174.258226,482.801935 172.814235,481.580802 171.675889,479.966759 L172.814229,479.202216 C174.922277,482.175453 177.957819,483.66205 181.920949,483.66205 C182.848489,483.66205 183.786557,483.51339 184.735178,483.216066 C185.683799,482.918743 186.548086,482.472764 187.328063,481.878116 C188.108041,481.283469 188.740446,480.540171 189.225296,479.648199 C189.710147,478.756228 189.952569,477.736848 189.952569,476.590028 C189.952569,475.230833 189.646907,474.126505 189.035573,473.277008 C188.424239,472.427512 187.654814,471.747925 186.727273,471.238227 C185.799732,470.728529 184.777344,470.314406 183.660079,469.995845 C182.542814,469.677284 181.499346,469.390583 180.529644,469.135734 C179.475621,468.83841 178.484853,468.509235 177.557312,468.148199 C176.629771,467.787163 175.818185,467.319947 175.12253,466.746537 C174.426874,466.173127 173.87879,465.461685 173.478261,464.612188 C173.077732,463.762692 172.87747,462.700837 172.87747,461.426593 C172.87747,460.152348 173.130432,459.048019 173.636364,458.113573 C174.142295,457.179127 174.81686,456.403974 175.660079,455.788089 C176.503298,455.172204 177.462445,454.704988 178.537549,454.386427 C179.612654,454.067865 180.698282,453.908587 181.794466,453.908587 C185.757596,453.908587 188.729898,455.331472 190.711462,458.177285 L189.509881,458.878116 C188.54018,457.603872 187.444011,456.658821 186.221344,456.042936 C184.998676,455.427051 183.523065,455.119114 181.794466,455.119114 C180.993408,455.119114 180.150202,455.225299 179.264822,455.437673 C178.379442,455.650047 177.567856,456.000459 176.83004,456.48892 C176.092223,456.97738 175.480898,457.625111 174.996047,458.432133 C174.511197,459.239155 174.268775,460.216061 174.268775,461.362881 C174.268775,462.637125 174.469036,463.656506 174.869565,464.421053 C175.270094,465.185599 175.828718,465.801475 176.545455,466.268698 C177.262191,466.735921 178.126477,467.128807 179.13834,467.447368 C180.150203,467.76593 181.267451,468.073867 182.490119,468.371191 C183.628464,468.668515 184.735172,469.018927 185.810277,469.422438 C186.885381,469.825948 187.833988,470.32502 188.656126,470.919668 C189.478265,471.514315 190.13175,472.257613 190.616601,473.149584 C191.101452,474.041556 191.343874,475.145884 191.343874,476.462604 L191.343874,476.462604 L191.343874,476.462604 Z M200.071146,469.135734 C200.071146,470.919677 200.334648,472.682355 200.86166,474.423823 C201.388672,476.16529 202.189718,477.726217 203.264822,479.106648 C204.339926,480.48708 205.699597,481.602027 207.343874,482.451524 C208.988151,483.30102 210.927525,483.725762 213.162055,483.725762 C215.438747,483.725762 217.462442,483.269164 219.233202,482.355956 C221.003961,481.442747 222.542813,480.115429 223.849802,478.373961 L224.86166,479.265928 C223.428188,481.13482 221.752315,482.557705 219.833992,483.534626 C217.915669,484.511547 215.691712,485 213.162055,485 C211.011847,485 209.051392,484.607114 207.280632,483.82133 C205.509873,483.035545 203.981561,481.941835 202.695652,480.540166 C201.409743,479.138497 200.418976,477.460767 199.72332,475.506925 C199.027665,473.553083 198.679842,471.429374 198.679842,469.135734 C198.679842,466.927043 199.038205,464.888283 199.754941,463.019391 C200.471677,461.150499 201.451904,459.53648 202.695652,458.177285 C203.9394,456.818091 205.404471,455.766855 207.090909,455.023546 C208.777347,454.280236 210.590241,453.908587 212.529644,453.908587 C214.806335,453.908587 216.78787,454.312092 218.474308,455.119114 C220.160746,455.926135 221.562577,456.98799 222.679842,458.304709 C223.797107,459.621429 224.629773,461.118644 225.177866,462.796399 C225.725958,464.474154 226,466.18374 226,467.925208 L226,469.135734 L200.071146,469.135734 L200.071146,469.135734 Z M224.671937,467.925208 C224.629776,466.013841 224.303033,464.272399 223.6917,462.700831 C223.080366,461.129263 222.2477,459.780707 221.193676,458.655125 C220.139652,457.529542 218.874843,456.658821 217.399209,456.042936 C215.923576,455.427051 214.279324,455.119114 212.466403,455.119114 C210.274034,455.119114 208.3979,455.575711 206.837945,456.48892 C205.27799,457.402128 204.00264,458.527694 203.011858,459.865651 C202.021075,461.203608 201.29381,462.605256 200.83004,464.070637 C200.366269,465.536018 200.134387,466.820862 200.134387,467.925208 L224.671937,467.925208 L224.671937,467.925208 Z" id="netease" fill="#2A2F3A" sketch:type="MSShapeGroup"></path>
            <path d="M266.066196,485.070968 C263.1701,485.070968 260.646397,484.585811 258.495011,483.615484 C256.343625,482.645156 254.564621,481.354847 253.157946,479.744516 C251.751271,478.134185 250.706623,476.286462 250.023972,474.20129 C249.341321,472.116119 249,469.958721 249,467.729032 L249,440.105806 L255.143831,440.105806 L255.143831,467.357419 C255.143831,468.843878 255.330005,470.319993 255.702361,471.785806 C256.074716,473.25162 256.684956,474.562575 257.533098,475.71871 C258.381241,476.874844 259.498289,477.803867 260.884278,478.505806 C262.270267,479.207745 263.997556,479.55871 266.066196,479.55871 C268.093464,479.55871 269.810409,479.207745 271.217084,478.505806 C272.62376,477.803867 273.751152,476.874844 274.599294,475.71871 C275.447437,474.562575 276.057676,473.25162 276.430032,471.785806 C276.802387,470.319993 276.988562,468.843878 276.988562,467.357419 L276.988562,440.105806 L283.132392,440.105806 L283.132392,467.729032 C283.132392,469.958721 282.791072,472.116119 282.108421,474.20129 C281.425769,476.286462 280.381122,478.134185 278.974446,479.744516 C277.567771,481.354847 275.788767,482.645156 273.637381,483.615484 C271.485996,484.585811 268.962292,485.070968 266.066196,485.070968 L266.066196,485.070968 L266.066196,485.070968 Z M308.886834,456.456774 L319.312728,440.105806 L326.51156,440.105806 L312.48625,460.854194 L328.435386,483.956129 L320.678024,483.956129 L308.638598,465.499355 L296.847408,483.956129 L289.276223,483.956129 L304.977123,460.730323 L290.827695,440.105806 L298.336822,440.105806 L308.886834,456.456774 L308.886834,456.456774 Z M349.411292,486 L345.005111,484.513548 L364.057192,438 L368.463373,439.610323 L349.411292,486 L349.411292,486 Z M395.707228,483.956129 L389.563397,483.956129 L389.563397,440.105806 L416.993429,440.105806 L416.993429,445.494194 L395.707228,445.494194 L395.707228,459.12 L415.628133,459.12 L415.628133,464.384516 L395.707228,464.384516 L395.707228,483.956129 L395.707228,483.956129 Z M430.95668,478.505806 L453.918472,478.505806 L453.918472,483.956129 L424.81285,483.956129 L424.81285,440.105806 L452.987588,440.105806 L452.987588,445.494194 L430.95668,445.494194 L430.95668,458.624516 L451.684351,458.624516 L451.684351,463.889032 L430.95668,463.889032 L430.95668,478.505806 L430.95668,478.505806 Z M462.110246,440.105806 L477.190557,440.105806 C480.003908,440.105806 482.817216,440.518706 485.630567,441.344516 C488.443918,442.170327 490.988307,443.470959 493.263811,445.246452 C495.539315,447.021944 497.380377,449.292889 498.787053,452.059355 C500.193728,454.82582 500.897055,458.149658 500.897055,462.030968 C500.897055,465.788406 500.193728,469.039986 498.787053,471.785806 C497.380377,474.531627 495.539315,476.802572 493.263811,478.59871 C490.988307,480.394848 488.443918,481.73677 485.630567,482.624516 C482.817216,483.512263 480.003908,483.956129 477.190557,483.956129 L462.110246,483.956129 L462.110246,440.105806 L462.110246,440.105806 Z M468.254076,478.567742 L475.949379,478.567742 C478.597239,478.567742 481.048541,478.196133 483.303358,477.452903 C485.558176,476.709674 487.502669,475.636136 489.136895,474.232258 C490.77112,472.82838 492.043315,471.094204 492.953517,469.029677 C493.863718,466.965151 494.318812,464.632271 494.318812,462.030968 C494.318812,459.305793 493.863718,456.910978 492.953517,454.846452 C492.043315,452.781925 490.77112,451.058071 489.136895,449.674839 C487.502669,448.291606 485.558176,447.238713 483.303358,446.516129 C481.048541,445.793545 478.597239,445.432258 475.949379,445.432258 L468.254076,445.432258 L468.254076,478.567742 L468.254076,478.567742 Z" id="UX-/-FED" fill="#333333" sketch:type="MSShapeGroup"></path>
            <path d="M80,26 L256,114 L256,185 L6,26 L80,26 L80,26 Z" id="1" fill="#676767" sketch:type="MSShapeGroup"></path>
            <path d="M432,26 L256,114 L256,185 L506,26 L432,26 Z" id="2" fill="#474747" sketch:type="MSShapeGroup"></path>
            <path d="M432,26 L205,296 L245,342 L510,26 L432,26 L432,26 Z" id="4" fill="#DA2B2B" sketch:type="MSShapeGroup"></path>
            <rect id="4a" fill="#474747" sketch:type="MSShapeGroup" x="256" y="235" width="24" height="23"></rect>
            <path d="M205,296 L229,296 L226,321 L205,296 Z" id="4b" fill="#474747" sketch:type="MSShapeGroup"></path>
            <path d="M3,26 L4,27 L323,407 L401,407 L81,26 L3,26 L3,26 Z" id="3" fill="#A31017" sketch:type="MSShapeGroup"></path>
            <path d="M136,407 L280,235 L319,282 L214,407 L136,407 L136,407 Z" id="5" fill="#DA2B2B" sketch:type="MSShapeGroup"></path>
        </g>
    </g>
</svg>