<?xml version="1.0" encoding="UTF-8" standalone="no"?>
<svg width="512px" height="512px" viewBox="0 0 512 512" version="1.1" xmlns="http://www.w3.org/2000/svg" xmlns:xlink="http://www.w3.org/1999/xlink" xmlns:sketch="http://www.bohemiancoding.com/sketch/ns">
    <!-- Generator: Sketch 3.3.2 (12043) - http://www.bohemiancoding.com/sketch -->
    <title>logo</title>
    <desc>Created with Sketch.</desc>
    <defs>
        <rect id="path-1" x="0" y="0" width="512" height="512"></rect>
        <path id="path-3" d="M244.892166,315.909516 L547.987948,-45.3059712 L502.025281,-83.8732277 L205.053041,270.044507 L244.892166,315.909516 L244.892166,315.909516 Z"></path>
        <path id="path-4" d="M400.469222,381 L9.97471864,-84.3732277 L-35.9879479,-45.8059712 L322.144785,381 L400.469222,381 L400.469222,381 Z"></path>
        <path d="M135.445117,381 L279.865179,208.886872 L318.798724,255.83111 L213.769554,381 L135.445117,381 Z" id="path-5"></path>
    </defs>
    <g id="Page-1" stroke="none" stroke-width="1" fill="none" fill-rule="evenodd" sketch:type="MSPage">
        <g id="logo" sketch:type="MSLayerGroup">
            <mask id="mask-2" sketch:name="Mask" fill="white">
                <use xlink:href="#path-1"></use>
            </mask>
            <use id="Mask" fill="#FFFFFF" sketch:type="MSShapeGroup" xlink:href="#path-1"></use>
            <path d="M432.294821,-1 L256,87 L256,158 L506,-1 L432.294821,-1 Z" id="Path-805-Copy-6" fill="#474747" sketch:type="MSShapeGroup" mask="url(#mask-2)"></path>
            <path d="M79.7051793,-1 L256,87 L256,158 L6,-1 L79.7051793,-1 L79.7051793,-1 Z" id="Path-805-Copy-7" fill="#676767" sketch:type="MSShapeGroup" mask="url(#mask-2)"></path>
            <g id="Rectangle-337-Copy">
                <use fill="#DA2B2B" fill-rule="evenodd" sketch:type="MSShapeGroup" mask="url(#mask-2)" xlink:href="#path-3"></use>
                <use fill="none" xlink:href="#path-3"></use>
            </g>
            <rect id="Rectangle-3" fill="#474747" sketch:type="MSShapeGroup" mask="url(#mask-2)" x="256" y="209" width="24" height="23"></rect>
            <path d="M205,270 L229,270 L226,295 L205,270 Z" id="Rectangle-3-Copy" fill="#474747" sketch:type="MSShapeGroup" mask="url(#mask-2)"></path>
            <g id="Rectangle-337">
                <use fill="#A31017" fill-rule="evenodd" sketch:type="MSShapeGroup" mask="url(#mask-2)" xlink:href="#path-4"></use>
                <use fill="none" xlink:href="#path-4"></use>
            </g>
            <g id="Rectangle-337-Copy-4">
                <use fill="#DA2B2B" fill-rule="evenodd" sketch:type="MSShapeGroup" mask="url(#mask-2)" xlink:href="#path-5"></use>
                <use fill="none" xlink:href="#path-5"></use>
            </g>
            <path d="M33.6576221,457.855451 L1.57868772,414.915146 L1.38924519,414.915146 L1.38924519,457.855451 L0,457.855451 L0,413.147015 L1.95757277,413.147015 L34.0996547,456.024174 L34.2890972,456.024174 L34.2890972,413.147015 L35.6783424,413.147015 L35.6783424,457.855451 L33.6576221,457.855451 Z M47.676369,443.015787 C47.676369,444.783926 47.939481,446.53099 48.4657129,448.25703 C48.9919447,449.983071 49.7918052,451.530169 50.8653182,452.898372 C51.9388312,454.266575 53.2964891,455.371645 54.9383325,456.213616 C56.5801759,457.055587 58.5166802,457.476566 60.7479033,457.476566 C63.021225,457.476566 65.0419251,457.024014 66.8100641,456.118895 C68.5782032,455.213776 70.1147772,453.898216 71.4198323,452.172176 L72.4301924,453.056241 C70.9988417,454.908577 69.3254495,456.318857 67.4099655,457.287124 C65.4944815,458.25539 63.2738163,458.739517 60.7479033,458.739517 C58.6008773,458.739517 56.6433241,458.350111 54.875185,457.571288 C53.1070459,456.792464 51.5809964,455.708443 50.2969906,454.319191 C49.0129849,452.929939 48.0236838,451.267071 47.3290577,449.330538 C46.6344317,447.394004 46.2871238,445.289109 46.2871238,443.015787 C46.2871238,440.826662 46.6449561,438.805962 47.3606315,436.953626 C48.0763068,435.10129 49.0550834,433.501569 50.2969906,432.154415 C51.5388978,430.807262 53.0018005,429.765338 54.6857425,429.028614 C56.3696845,428.291889 58.1798949,427.923532 60.1164282,427.923532 C62.3897499,427.923532 64.368352,428.323463 66.052294,429.123335 C67.736236,429.923207 69.1359918,430.975655 70.2516034,432.28071 C71.3672149,433.585765 72.1986488,435.069717 72.7459299,436.73261 C73.2932111,438.395502 73.5668476,440.089944 73.5668476,441.815984 L73.5668476,443.015787 L47.676369,443.015787 Z M72.2407499,441.815984 C72.1986513,439.921549 71.8723925,438.195535 71.2619635,436.637889 C70.6515345,435.080242 69.8201006,433.743633 68.7676369,432.628022 C67.7151732,431.51241 66.4522356,430.649403 64.9787864,430.038974 C63.5053371,429.428545 61.8635183,429.123335 60.0532807,429.123335 C57.8641561,429.123335 55.9907988,429.575888 54.4331524,430.481006 C52.8755061,431.386125 51.6020441,432.50172 50.6127282,433.827824 C49.6234123,435.153929 48.8972232,436.54316 48.4341391,437.99556 C47.9710551,439.44796 47.7395165,440.721422 47.7395165,441.815984 L72.2407499,441.815984 Z M95.1632955,457.918599 C94.6581129,458.129092 94.0687421,458.297483 93.3951653,458.423779 C92.7215885,458.550075 92.0690707,458.613222 91.4375925,458.613222 C89.1642708,458.613222 87.5329765,457.971228 86.5436606,456.687222 C85.5543447,455.403217 85.0596941,453.792971 85.0596941,451.856438 L85.0596941,430.0074 L78.7449433,430.0074 L78.7449433,428.807597 L84.9965466,428.807597 L84.9965466,420.282684 L86.4489393,420.282684 L86.4489393,428.807597 L94.973853,428.807597 L94.973853,430.0074 L86.4489393,430.0074 L86.4489393,451.856438 C86.4489393,453.83507 86.9330654,455.255875 87.901332,456.118895 C88.8695987,456.981915 90.1535852,457.413419 91.75333,457.413419 C92.9320894,457.413419 94.0055863,457.223978 94.973853,456.845091 L95.1632955,457.918599 Z M103.372472,457.855451 L103.372472,413.147015 L129.389245,413.147015 L129.389245,414.409965 L104.698569,414.409965 L104.698569,434.048841 L127.936852,434.048841 L127.936852,435.311791 L104.698569,435.311791 L104.698569,456.592501 L130.399605,456.592501 L130.399605,457.855451 L103.372472,457.855451 Z M160.331524,451.288111 C160.331524,452.382673 160.384147,453.55089 160.489393,454.792797 C160.59464,456.034704 160.710409,457.055579 160.836704,457.855451 L159.510607,457.855451 C159.42641,457.434466 159.363263,456.918766 159.321164,456.308337 C159.279066,455.697908 159.226443,455.06644 159.163296,454.413912 C159.100148,453.761385 159.05805,453.119391 159.037,452.487913 C159.015951,451.856435 159.005427,451.330211 159.005427,450.909225 L158.815984,450.909225 C157.974013,453.561434 156.521635,455.529512 154.458806,456.813518 C152.395977,458.097523 150.185836,458.739517 147.828318,458.739517 C146.649558,458.739517 145.481341,458.571125 144.323631,458.234336 C143.165921,457.897548 142.123997,457.392373 141.197829,456.718796 C140.271661,456.045219 139.524423,455.182212 138.956093,454.129748 C138.387762,453.077285 138.103601,451.835396 138.103601,450.404045 C138.103601,448.341216 138.64035,446.678349 139.713863,445.415392 C140.787376,444.152436 142.123985,443.173659 143.72373,442.479033 C145.323475,441.784407 147.038965,441.331854 148.870252,441.121362 C150.701539,440.910869 152.374931,440.805624 153.890479,440.805624 L158.942279,440.805624 L158.942279,438.469166 C158.942279,435.227578 158.079272,432.85957 156.353231,431.365072 C154.627191,429.870573 152.374952,429.123335 149.596448,429.123335 C147.870407,429.123335 146.260162,429.439069 144.765664,430.070548 C143.271165,430.702026 141.934556,431.543984 140.755797,432.596448 L139.998027,431.52294 C141.34518,430.344181 142.87123,429.4496 144.576221,428.839171 C146.281212,428.228742 147.954605,427.923532 149.596448,427.923532 C152.922233,427.923532 155.542829,428.776015 157.458313,430.481006 C159.373797,432.185998 160.331524,434.86974 160.331524,438.532314 L160.331524,451.288111 Z M158.942279,442.005427 L154.458806,442.005427 C152.859061,442.005427 151.175145,442.100147 149.407005,442.289591 C147.638866,442.479034 146.018096,442.86844 144.544647,443.457819 C143.071198,444.047199 141.860883,444.889157 140.913666,445.98372 C139.966448,447.078282 139.492847,448.551709 139.492847,450.404045 C139.492847,451.751199 139.755959,452.877318 140.28219,453.782437 C140.808422,454.687556 141.481989,455.413745 142.302911,455.961026 C143.123832,456.508307 144.028938,456.908238 145.018254,457.160829 C146.007569,457.41342 146.944248,457.539714 147.828318,457.539714 C149.975344,457.539714 151.764505,457.139784 153.195856,456.339911 C154.627207,455.540039 155.774375,454.519164 156.637395,453.277257 C157.500415,452.03535 158.100311,450.667167 158.437099,449.172669 C158.773888,447.67817 158.942279,446.215268 158.942279,444.783917 L158.942279,442.005427 Z M189.063641,450.27775 C189.063641,451.582805 188.811053,452.751023 188.305871,453.782437 C187.800688,454.813852 187.116597,455.687383 186.253577,456.403059 C185.390556,457.118734 184.390731,457.666007 183.25407,458.044894 C182.117409,458.423781 180.89657,458.613222 179.591515,458.613222 C177.444489,458.613222 175.49746,458.202767 173.75037,457.381845 C172.00328,456.560923 170.561427,455.350608 169.424766,453.750863 L170.561421,452.993093 C172.666348,455.939992 175.697398,457.413419 179.654662,457.413419 C180.58083,457.413419 181.517509,457.266076 182.464726,456.971386 C183.411944,456.676696 184.274951,456.234668 185.053774,455.645289 C185.832597,455.055909 186.464066,454.319195 186.948199,453.435126 C187.432333,452.551056 187.674396,451.540706 187.674396,450.404045 C187.674396,449.056892 187.369186,447.962346 186.758757,447.120375 C186.148328,446.278404 185.380041,445.604837 184.453873,445.099655 C183.527705,444.594472 182.50683,444.184017 181.391219,443.868278 C180.275607,443.552539 179.233684,443.268378 178.265417,443.015787 C177.212953,442.721097 176.223652,442.394838 175.297484,442.037 C174.371316,441.679163 173.560931,441.216086 172.866305,440.647755 C172.171679,440.079425 171.624406,439.374285 171.22447,438.532314 C170.824533,437.690343 170.624568,436.637895 170.624568,435.374938 C170.624568,434.111982 170.877156,433.017436 171.382338,432.091268 C171.887521,431.1651 172.561088,430.396813 173.403059,429.786384 C174.24503,429.175955 175.202757,428.712878 176.27627,428.397139 C177.349783,428.0814 178.433805,427.923532 179.528367,427.923532 C183.485631,427.923532 186.453534,429.333813 188.432166,432.154415 L187.232363,432.849038 C186.264096,431.586081 185.169551,430.649403 183.948693,430.038974 C182.727835,429.428545 181.254408,429.123335 179.528367,429.123335 C178.728495,429.123335 177.886536,429.22858 177.002467,429.439073 C176.118397,429.649565 175.308012,429.996873 174.571288,430.481006 C173.834563,430.96514 173.224143,431.607133 172.74001,432.407005 C172.255877,433.206878 172.013814,434.17513 172.013814,435.311791 C172.013814,436.574747 172.213779,437.585097 172.613715,438.342871 C173.013651,439.100645 173.571448,439.711065 174.287124,440.174149 C175.002799,440.637233 175.865806,441.026639 176.876172,441.342378 C177.886537,441.658117 179.002132,441.963327 180.22299,442.258017 C181.35965,442.552707 182.464721,442.900014 183.538234,443.299951 C184.611747,443.699887 185.55895,444.194537 186.379872,444.783917 C187.200793,445.373297 187.853311,446.11001 188.337444,446.99408 C188.821578,447.878149 189.063641,448.972695 189.063641,450.27775 L189.063641,450.27775 Z M197.777997,443.015787 C197.777997,444.783926 198.041109,446.53099 198.567341,448.25703 C199.093573,449.983071 199.893433,451.530169 200.966946,452.898372 C202.040459,454.266575 203.398117,455.371645 205.039961,456.213616 C206.681804,457.055587 208.618308,457.476566 210.849531,457.476566 C213.122853,457.476566 215.143553,457.024014 216.911692,456.118895 C218.679831,455.213776 220.216405,453.898216 221.52146,452.172176 L222.53182,453.056241 C221.10047,454.908577 219.427077,456.318857 217.511593,457.287124 C215.596109,458.25539 213.375444,458.739517 210.849531,458.739517 C208.702505,458.739517 206.744952,458.350111 204.976813,457.571288 C203.208674,456.792464 201.682624,455.708443 200.398619,454.319191 C199.114613,452.929939 198.125312,451.267071 197.430686,449.330538 C196.73606,447.394004 196.388752,445.289109 196.388752,443.015787 C196.388752,440.826662 196.746584,438.805962 197.462259,436.953626 C198.177935,435.10129 199.156711,433.501569 200.398619,432.154415 C201.640526,430.807262 203.103429,429.765338 204.78737,429.028614 C206.471312,428.291889 208.281523,427.923532 210.218056,427.923532 C212.491378,427.923532 214.46998,428.323463 216.153922,429.123335 C217.837864,429.923207 219.23762,430.975655 220.353231,432.28071 C221.468843,433.585765 222.300277,435.069717 222.847558,436.73261 C223.394839,438.395502 223.668476,440.089944 223.668476,441.815984 L223.668476,443.015787 L197.777997,443.015787 Z M222.342378,441.815984 C222.300279,439.921549 221.97402,438.195535 221.363592,436.637889 C220.753163,435.080242 219.921729,433.743633 218.869265,432.628022 C217.816801,431.51241 216.553864,430.649403 215.080414,430.038974 C213.606965,429.428545 211.965146,429.123335 210.154909,429.123335 C207.965784,429.123335 206.092427,429.575888 204.53478,430.481006 C202.977134,431.386125 201.703672,432.50172 200.714356,433.827824 C199.72504,435.153929 198.998851,436.54316 198.535767,437.99556 C198.072683,439.44796 197.841145,440.721422 197.841145,441.815984 L222.342378,441.815984 Z" id="NetEase-UX-/-DEV" fill="#2A2F3A" sketch:type="MSShapeGroup" mask="url(#mask-2)"></path>
            <text id="UX-/-FED" sketch:type="MSTextLayer" mask="url(#mask-2)" font-family="Avenir Next" font-size="62" font-weight="420" fill="#333333">
                <tspan x="244" y="458">UX / FED</tspan>
            </text>
        </g>
    </g>
</svg>