<?xml version="1.0" encoding="UTF-8" standalone="no"?>
<svg width="420px" height="200px" viewBox="0 0 420 200" version="1.1" xmlns="http://www.w3.org/2000/svg" xmlns:xlink="http://www.w3.org/1999/xlink" xmlns:sketch="http://www.bohemiancoding.com/sketch/ns">
    <!-- Generator: Sketch 3.3.2 (12043) - http://www.bohemiancoding.com/sketch -->
    <title>fed-logo@2x</title>
    <desc>Created with Sketch.</desc>
    <defs></defs>
    <g id="Page-1" stroke="none" stroke-width="1" fill="none" fill-rule="evenodd" sketch:type="MSPage">
        <g id="Group" sketch:type="MSLayerGroup" transform="translate(24.000000, 15.000000)" fill="#000000">
            <path d="M0,131 L35,131 L35,115 L16,115 L16,16 L115,16 L115,115 L112,131 L131,131 L131,0 L0,0 L0,131 Z" id="Fill-1" sketch:type="MSShapeGroup"></path>
            <path d="M27,170 L131,123 L131,8 L27,55 L27,170 Z M61.8015254,54.912262 L100.061492,99.7412607 L100.061492,36.8778709 L116.006373,30.0128156 L116.006373,113.988816 L97.0287458,122.706346 L57.9385085,76.2423664 L57.9385085,141.122129 L41.9936271,147.987184 L41.9936271,64.0111844 L61.8015254,54.912262 Z" id="Fill-2" sketch:type="MSShapeGroup"></path>
            <path d="M179.311,53.767 C181.864,54.91 183.973,56.715 185.636,59.181 C187.135,61.356 188.107,63.878 188.552,66.748 C188.81,68.43 188.915,70.851 188.868,74.012 L162.21,74.012 C162.358,77.684 163.634,80.258 166.037,81.735 C167.499,82.653 169.258,83.112 171.314,83.112 C173.494,83.112 175.265,82.553 176.628,81.433 C177.371,80.829 178.028,79.989 178.598,78.915 L188.368,78.915 C188.11,81.086 186.928,83.291 184.82,85.53 C181.541,89.089 176.952,90.869 171.05,90.869 C166.179,90.869 161.881,89.367 158.158,86.365 C154.434,83.363 152.573,78.479 152.573,71.712 C152.573,65.372 154.253,60.51 157.615,57.127 C160.976,53.744 165.339,52.051 170.703,52.051 C173.888,52.051 176.758,52.624 179.311,53.767 L179.311,53.767 Z M164.994,62.034 C163.642,63.428 162.792,65.316 162.445,67.699 L178.932,67.699 C178.758,65.159 177.909,63.231 176.383,61.916 C174.857,60.6 172.965,59.942 170.707,59.942 C168.25,59.942 166.347,60.64 164.994,62.034 L164.994,62.034 Z" id="Fill-3" sketch:type="MSShapeGroup"></path>
            <path d="M189.946,60.177 L189.946,53.361 L195.05,53.361 L195.05,43.153 L204.519,43.153 L204.519,53.361 L210.463,53.361 L210.463,60.177 L204.519,60.177 L204.519,79.519 C204.519,81.019 204.709,81.953 205.09,82.323 C205.471,82.693 206.635,82.877 208.582,82.877 C208.873,82.877 209.181,82.872 209.506,82.86 C209.83,82.849 210.149,82.832 210.463,82.81 L210.463,89.962 L205.93,90.13 C201.407,90.286 198.318,89.504 196.662,87.78 C195.587,86.683 195.05,84.992 195.05,82.709 L195.05,60.177 L189.946,60.177" id="Fill-4" sketch:type="MSShapeGroup"></path>
            <path d="M253.981,48.895 L227.79,48.895 L227.79,59.406 L251.832,59.406 L251.832,68.002 L227.79,68.002 L227.79,80.728 L255.19,80.728 L255.19,89.626 L217.682,89.626 L217.682,40.131 L253.981,40.131 L253.981,48.895" id="Fill-5" sketch:type="MSShapeGroup"></path>
            <path d="M276.973,67.364 C278.754,67.14 280.028,66.86 280.795,66.524 C282.171,65.942 282.859,65.035 282.859,63.804 C282.859,62.305 282.331,61.269 281.276,60.698 C280.221,60.127 278.672,59.842 276.63,59.842 C274.338,59.842 272.715,60.402 271.763,61.521 C271.082,62.349 270.628,63.468 270.401,64.879 L261.167,64.879 C261.369,61.677 262.268,59.048 263.865,56.987 C266.405,53.764 270.767,52.152 276.95,52.152 C280.974,52.152 284.549,52.947 287.674,54.536 C290.799,56.126 292.362,59.126 292.362,63.535 L292.362,80.325 C292.362,81.489 292.384,82.899 292.429,84.556 C292.496,85.81 292.686,86.66 293,87.108 C293.313,87.556 293.783,87.925 294.41,88.216 L294.41,89.626 L284.001,89.626 C283.709,88.888 283.508,88.194 283.396,87.545 C283.284,86.895 283.195,86.157 283.128,85.328 C281.799,86.761 280.267,87.981 278.534,88.988 C276.463,90.174 274.121,90.768 271.509,90.768 C268.176,90.768 265.424,89.822 263.251,87.93 C261.078,86.039 259.992,83.359 259.992,79.888 C259.992,75.389 261.739,72.132 265.235,70.117 C267.152,69.021 269.971,68.236 273.692,67.766 L276.973,67.364 L276.973,67.364 Z M282.825,71.829 C282.212,72.21 281.593,72.518 280.97,72.753 C280.345,72.988 279.489,73.206 278.4,73.407 L276.221,73.811 C274.179,74.169 272.713,74.605 271.823,75.12 C270.315,75.993 269.562,77.348 269.562,79.183 C269.562,80.818 270.022,81.999 270.943,82.726 C271.863,83.453 272.983,83.817 274.301,83.817 C276.392,83.817 278.318,83.213 280.08,82.004 C281.842,80.795 282.757,78.591 282.825,75.389 L282.825,71.829 L282.825,71.829 Z" id="Fill-6" sketch:type="MSShapeGroup"></path>
            <path d="M308.144,77.94 C308.346,79.642 308.785,80.851 309.46,81.567 C310.652,82.844 312.856,83.482 316.073,83.482 C317.962,83.482 319.464,83.202 320.577,82.642 C321.69,82.083 322.247,81.243 322.247,80.124 C322.247,79.049 321.798,78.232 320.902,77.672 C320.004,77.113 316.667,76.15 310.89,74.784 C306.731,73.755 303.801,72.467 302.1,70.922 C300.398,69.401 299.548,67.207 299.548,64.342 C299.548,60.961 300.877,58.057 303.535,55.628 C306.194,53.199 309.935,51.984 314.758,51.984 C319.334,51.984 323.064,52.897 325.946,54.721 C328.829,56.546 330.484,59.696 330.91,64.173 L321.34,64.173 C321.205,62.942 320.857,61.969 320.297,61.252 C319.241,59.954 317.445,59.304 314.909,59.304 C312.821,59.304 311.334,59.629 310.448,60.278 C309.561,60.928 309.117,61.688 309.117,62.562 C309.117,63.659 309.589,64.454 310.532,64.946 C311.474,65.461 314.805,66.345 320.524,67.598 C324.336,68.494 327.194,69.848 329.097,71.662 C330.977,73.497 331.918,75.792 331.918,78.546 C331.918,82.171 330.566,85.133 327.863,87.427 C325.16,89.722 320.982,90.869 315.33,90.869 C309.565,90.869 305.309,89.654 302.561,87.225 C299.813,84.796 298.439,81.702 298.439,77.94 L308.144,77.94" id="Fill-7" sketch:type="MSShapeGroup"></path>
            <path d="M362.819,53.767 C365.373,54.91 367.481,56.715 369.145,59.181 C370.643,61.356 371.616,63.878 372.06,66.748 C372.318,68.43 372.423,70.851 372.376,74.012 L345.719,74.012 C345.867,77.684 347.143,80.258 349.546,81.735 C351.008,82.653 352.766,83.112 354.823,83.112 C357.003,83.112 358.774,82.553 360.136,81.433 C360.88,80.829 361.536,79.989 362.106,78.915 L371.876,78.915 C371.619,81.086 370.436,83.291 368.329,85.53 C365.05,89.089 360.46,90.869 354.559,90.869 C349.688,90.869 345.39,89.367 341.667,86.365 C337.943,83.363 336.081,78.479 336.081,71.712 C336.081,65.372 337.762,60.51 341.124,57.127 C344.485,53.744 348.848,52.051 354.212,52.051 C357.397,52.051 360.267,52.624 362.819,53.767 L362.819,53.767 Z M348.503,62.034 C347.15,63.428 346.301,65.316 345.953,67.699 L362.441,67.699 C362.267,65.159 361.417,63.231 359.891,61.916 C358.366,60.6 356.474,59.942 354.216,59.942 C351.759,59.942 349.855,60.64 348.503,62.034 L348.503,62.034 Z" id="Fill-8" sketch:type="MSShapeGroup"></path>
        </g>
    </g>
</svg>